<svg xmlns:xlink="http://www.w3.org/1999/xlink" viewBox="0 0 115 30" fill="none" xmlns="http://www.w3.org/2000/svg" width="115"  height="30" >
								<path d="M34.0287 0.960938L23.418 26.049H28.9751L31.2344 20.4639H41.7067L43.9724 26.049H49.6364L39.0256 0.960938H34.0287ZM33.179 15.6262L36.4705 7.54639L39.7621 15.6262H33.179Z" fill="#3273D5"></path>
							
								<path d="M16.4132 13.0261C17.4123 12.5418 18.2509 11.7774 18.8282 10.8247C19.4055 9.87204 19.6968 8.77176 19.667 7.6564V7.58042C19.6894 6.79609 19.5506 6.01556 19.2593 5.28771C18.968 4.55986 18.5304 3.90034 17.9741 3.35054C16.558 1.92581 14.3301 1.14062 11.498 1.14062H0V26.0513H11.7813C17.3699 26.0513 21.0515 23.7781 21.0515 19.2189V19.1492C21.0515 15.8059 19.2831 14.1279 16.4132 13.0261ZM5.30532 5.94674H10.6862C12.9834 5.94674 14.2546 6.87124 14.2546 8.4796V8.55559C14.2546 10.4046 12.7379 11.1898 10.3338 11.1898H5.29903L5.30532 5.94674ZM15.6391 18.5413C15.6391 20.3967 14.1854 21.2516 11.7813 21.2516H5.30532V15.7678H11.5988C14.3931 15.7678 15.6328 16.8 15.6328 18.4718L15.6391 18.5413Z" fill="#3273D5"></path>
							
								<path d="M63.1788 11.1361C58.8931 10.0343 57.8358 9.50244 57.8358 7.86241V7.79277C57.8358 6.58333 58.9309 5.62084 61.0203 5.62084C63.1097 5.62084 65.2621 6.54534 67.4584 8.07773L70.2842 3.94915C67.6789 1.84938 64.4271 0.729707 61.0896 0.783073C56.0547 0.783073 52.4235 3.77184 52.4235 8.29299V8.36264C52.4235 13.308 55.6394 14.6948 60.6048 15.9612C64.7397 17.0251 65.5894 17.7405 65.5894 19.1274V19.1969C65.5894 20.6597 64.2488 21.5462 62.0209 21.5462C59.1889 21.5462 56.854 20.3748 54.6261 18.5194L51.4102 22.4011C54.3047 24.9852 58.0442 26.4054 61.914 26.3903C67.2572 26.3903 71.0017 23.6105 71.0017 18.665V18.5954C71.0269 14.2706 68.201 12.4532 63.1788 11.1361Z" fill="#3273D5"></path>
							
								<path d="M81.4677 1.14062H76.0176V26.0513H81.4677V1.14062Z" fill="#3273D5"></path>
							
								<path d="M99.7514 0.742188C92.1112 0.742188 86.5352 6.54242 86.5352 13.6281V13.6978C86.5352 20.7772 92.0105 26.5014 99.6444 26.5077H102.879V21.4419H99.6444C95.3019 21.3977 92.2307 17.8581 92.2307 13.6155V13.5395C92.2307 9.27161 95.2704 5.78259 99.6569 5.78259C104.043 5.78259 107.152 9.34126 107.152 13.6155V17.1678H112.817V13.5395C112.873 6.47281 107.392 0.742188 99.7514 0.742188Z" fill="#3273D5"></path>
							
								<path d="M106.535 19.1665L106.358 18.9955C105.762 18.4012 105.288 17.6941 104.964 16.915C104.64 16.1358 104.472 15.3 104.47 14.4554V11.9922H97.9062V18.8942H100.424C101.262 18.8975 102.091 19.0671 102.864 19.393C103.638 19.719 104.339 20.1949 104.93 20.7938C105.527 21.3877 106.001 22.0946 106.325 22.8739C106.649 23.6532 106.817 24.4893 106.818 25.334V29.2599H114.999V21.0472H111.116C110.267 21.0564 109.424 20.8948 108.637 20.5719C107.85 20.2489 107.135 19.7711 106.535 19.1665Z" fill="#3273D5"></path>
							</svg>