<svg xmlns="http://www.w3.org/2000/svg" width="24" height="24" viewBox="0 0 24 24" fill="none"><script xmlns="" id="eppiocemhmnlbhjplcgkofciiegomcon"/><script xmlns=""/><script xmlns=""/>
<path d="M12.01 6.75C11.5973 6.75 11.2586 7.08807 11.2586 7.5V7.9728L11.0841 8.02823C10.0563 8.35466 9.255 9.17709 9.255 10.31C9.255 11.7702 10.6097 12.75 12.01 12.75C12.8437 12.75 13.2623 13.2974 13.2623 13.69C13.2623 14.0707 12.8459 14.63 12.01 14.63H11.9605C11.7708 14.63 11.5569 14.5947 11.3515 14.4809C11.147 14.3773 10.9698 14.2063 10.8252 14.0064L10.8204 13.9998C10.5873 13.6546 10.1221 13.5643 9.77566 13.7973C9.43 14.0298 9.33953 14.494 9.57255 14.8398C9.85167 15.2482 10.2123 15.5796 10.6449 15.8093C10.7297 15.8544 10.8067 15.8801 10.9028 15.912C10.9563 15.9298 11.0158 15.9496 11.0861 15.9759L11.2486 16.0367V16.5C11.2486 16.9119 11.5873 17.25 12 17.25C12.4127 17.25 12.7513 16.9119 12.7513 16.5V16.0272L12.9258 15.9718C13.953 15.6455 14.755 14.8134 14.755 13.69V13.6885C14.7639 12.2299 13.4108 11.25 12.01 11.25C11.1763 11.25 10.7577 10.7026 10.7577 10.31C10.7577 9.91742 11.1763 9.37 12.01 9.37H12.0495C12.2392 9.37 12.4531 9.40526 12.6584 9.51914C12.863 9.62269 13.0401 9.79368 13.1848 9.99363L13.1896 10.0002C13.4226 10.3454 13.8879 10.4357 14.2343 10.2027C14.58 9.97016 14.6704 9.506 14.4374 9.16026C14.1583 8.75181 13.7976 8.4204 13.365 8.19072C13.2802 8.14557 13.2033 8.11992 13.1072 8.08799C13.0537 8.07019 12.9941 8.05039 12.9239 8.02408L12.7614 7.96325V7.5C12.7614 7.08807 12.4227 6.75 12.01 6.75Z" fill="#ff5a65"/>
<path d="M12 23C18.0751 23 23 18.0751 23 12C23 5.92487 18.0751 1 12 1C5.92487 1 1 5.92487 1 12C1 18.0751 5.92487 23 12 23ZM12 21.5C9.34853 21.5 6.95077 20.4138 5.22744 18.662L8.55882 15.8667C8.87612 15.6004 8.91751 15.1273 8.65126 14.81C8.38501 14.4927 7.91194 14.4513 7.59464 14.7176L4.26268 17.5134C3.15292 15.9588 2.5 14.0557 2.5 12C2.5 6.75329 6.75329 2.5 12 2.5C14.6515 2.5 17.0493 3.58629 18.7727 5.3381L15.4414 8.13334C15.1241 8.39959 15.0828 8.87266 15.349 9.18996C15.6153 9.50727 16.0883 9.54866 16.4056 9.28241L19.7374 6.4867C20.8471 8.04128 21.5 9.9444 21.5 12C21.5 17.2467 17.2467 21.5 12 21.5Z" fill="#ff5a65"/>
</svg>